<svg width="62" height="63" viewBox="0 0 62 63" fill="none" xmlns="http://www.w3.org/2000/svg">
<g clip-path="url(#clip0_2273_3005)">
<path d="M23.1483 7.69137C20.3843 8.63804 17.7783 9.97916 15.4882 11.7936C15.5671 11.8725 15.7251 11.9514 15.8041 12.1092C15.883 12.1881 15.883 12.1881 15.962 12.267C18.1732 10.6103 20.6212 9.26915 23.3062 8.40137C23.2273 8.08581 23.1483 7.92803 23.1483 7.69137ZM49.8403 14.7125C49.7613 14.8703 49.6824 15.107 49.5244 15.2647C51.4987 17.3948 53.0781 19.9192 54.1837 22.6015C54.4206 22.5226 54.5785 22.5226 54.8154 22.5226C53.6309 19.6826 51.9725 17.0003 49.8403 14.7125ZM54.2626 41.1405C53.1571 43.9016 51.5776 46.4261 49.6034 48.5561C49.7613 48.7138 49.8403 48.9505 49.9193 49.1872C52.0515 46.8994 53.7098 44.2172 54.8944 41.2982C54.6575 41.2194 54.4206 41.2194 54.2626 41.1405ZM15.1723 51.1594C15.0933 51.2383 15.0933 51.2383 15.0143 51.3172C14.9354 51.3961 14.8564 51.475 14.6985 51.5539C17.1465 53.605 19.9895 55.1828 23.0693 56.2083C23.0693 55.9717 23.1483 55.8139 23.2273 55.5772C20.2264 54.6306 17.5414 53.1317 15.1723 51.1594ZM6.16966 37.0382C6.09069 37.0382 6.09069 37.0382 6.01172 37.0382C6.48554 39.326 7.27525 41.456 8.30186 43.5071C8.4598 43.3494 8.61774 43.2705 8.85465 43.1916C7.90701 41.2982 7.11731 39.2471 6.72245 37.0382C6.48554 37.0382 6.3276 37.0382 6.16966 37.0382ZM41.7853 55.1039C41.7063 55.025 41.6274 54.9461 41.5484 54.8672C41.4694 54.7883 41.3905 54.7094 41.3115 54.6305C38.8634 55.735 36.1784 56.445 33.3355 56.7606C33.3355 56.8395 33.3355 56.9183 33.3355 56.9972C33.3355 57.155 33.3355 57.2339 33.3355 57.3917C36.3364 57.155 39.1793 56.3661 41.7853 55.1039ZM33.3355 6.58691C33.3355 6.6658 33.3355 6.74469 33.3355 6.82358C33.3355 6.98136 33.3355 7.13914 33.3355 7.21803C36.0994 7.4547 38.7844 8.1647 41.2325 9.26915C41.3115 9.11138 41.3905 9.03249 41.5484 8.9536C41.6274 8.87471 41.6274 8.87471 41.7063 8.79582C39.1003 7.61248 36.2574 6.82358 33.3355 6.58691ZM8.69671 19.6037C7.51216 21.8126 6.56451 24.1792 6.01172 26.7826C6.09069 26.7826 6.09069 26.7826 6.16966 26.7826C6.3276 26.7826 6.48554 26.7826 6.64348 26.7826C7.11731 24.4159 8.06495 22.1281 9.17054 19.9981C9.01259 19.9192 8.85465 19.7614 8.69671 19.6037Z" fill="#0C0C0C"/>
<path d="M27.8831 11.8726C30.718 11.8726 33.0162 9.57676 33.0162 6.74475C33.0162 3.91274 30.718 1.61694 27.8831 1.61694C25.0482 1.61694 22.75 3.91274 22.75 6.74475C22.75 9.57676 25.0482 11.8726 27.8831 11.8726Z" stroke="black" stroke-width="0.434529" stroke-miterlimit="10"/>
<path d="M11.8518 20.866C14.6867 20.866 16.9849 18.5702 16.9849 15.7382C16.9849 12.9062 14.6867 10.6104 11.8518 10.6104C9.01691 10.6104 6.71875 12.9062 6.71875 15.7382C6.71875 18.5702 9.01691 20.866 11.8518 20.866Z" stroke="black" stroke-width="0.434529" stroke-miterlimit="10"/>
<path d="M5.92995 37.0382C8.76487 37.0382 11.063 34.7424 11.063 31.9104C11.063 29.0784 8.76487 26.7826 5.92995 26.7826C3.09503 26.7826 0.796875 29.0784 0.796875 31.9104C0.796875 34.7424 3.09503 37.0382 5.92995 37.0382Z" stroke="black" stroke-width="0.434529" stroke-miterlimit="10"/>
<path d="M11.0628 52.8162C13.8977 52.8162 16.1958 50.5204 16.1958 47.6884C16.1958 44.8563 13.8977 42.5605 11.0628 42.5605C8.22784 42.5605 5.92969 44.8563 5.92969 47.6884C5.92969 50.5204 8.22784 52.8162 11.0628 52.8162Z" stroke="black" stroke-width="0.434529" stroke-miterlimit="10"/>
<path d="M27.8831 62.204C30.718 62.204 33.0162 59.9082 33.0162 57.0762C33.0162 54.2442 30.718 51.9484 27.8831 51.9484C25.0482 51.9484 22.75 54.2442 22.75 57.0762C22.75 59.9082 25.0482 62.204 27.8831 62.204Z" stroke="black" stroke-width="0.434529" stroke-miterlimit="10"/>
<path d="M44.9417 56.3662C47.7766 56.3662 50.0747 54.0704 50.0747 51.2384C50.0747 48.4064 47.7766 46.1106 44.9417 46.1106C42.1068 46.1106 39.8086 48.4064 39.8086 51.2384C39.8086 54.0704 42.1068 56.3662 44.9417 56.3662Z" stroke="black" stroke-width="0.434529" stroke-miterlimit="10"/>
<path d="M44.9417 17.7105C47.7766 17.7105 50.0747 15.4147 50.0747 12.5826C50.0747 9.75063 47.7766 7.45483 44.9417 7.45483C42.1068 7.45483 39.8086 9.75063 39.8086 12.5826C39.8086 15.4147 42.1068 17.7105 44.9417 17.7105Z" stroke="black" stroke-width="0.434529" stroke-miterlimit="10"/>
<path d="M54.8145 41.2195H54.5775C51.8136 41.2195 49.5234 38.9317 49.5234 36.1706V27.4928C49.5234 24.7316 51.8136 22.4438 54.5775 22.4438H54.8145C57.5784 22.4438 59.8686 24.7316 59.8686 27.4928V36.1706C59.7896 39.0106 57.5784 41.2195 54.8145 41.2195Z" stroke="black" stroke-width="0.434529" stroke-miterlimit="10"/>
</g>
<defs>
<clipPath id="clip0_2273_3005">
<rect width="60.8341" height="62.5722" fill="white" transform="translate(0.300781 0.195557)"/>
</clipPath>
</defs>
</svg>
