<svg width="24" height="23" viewBox="0 0 24 23" fill="none" xmlns="http://www.w3.org/2000/svg">
<path d="M23.1118 22.4954H1.35005C1.14586 22.4954 1 22.3559 1 22.1607V1.1348C1 0.9396 1.14586 0.800171 1.35005 0.800171H23.0826C23.2868 0.800171 23.4327 0.9396 23.4327 1.1348V22.1886C23.4618 22.3559 23.2868 22.4954 23.1118 22.4954Z" stroke="white" stroke-miterlimit="10"/>
<path d="M1 8.66405C1 8.66405 2.19602 10.7555 4.15049 10.9507C6.10496 11.1459 9.05126 9.97469 12.2309 10.0583C15.4106 10.142 17.8901 11.7594 19.8738 11.118C23.1993 10.0305 23.4618 7.91113 23.4618 7.91113" stroke="white" stroke-miterlimit="10"/>
<path d="M12.2294 7.82746C13.1155 7.82746 13.8338 7.14078 13.8338 6.29373C13.8338 5.44668 13.1155 4.76001 12.2294 4.76001C11.3433 4.76001 10.625 5.44668 10.625 6.29373C10.625 7.14078 11.3433 7.82746 12.2294 7.82746Z" stroke="white" stroke-width="0.6756" stroke-miterlimit="10"/>
<path d="M7.06616 17.1692H7.70792C7.79544 17.1692 7.85378 17.1971 7.94129 17.225C7.99963 17.2528 8.05798 17.3086 8.08715 17.3644C8.11632 17.4202 8.14549 17.5038 8.14549 17.5596C8.14549 17.6432 8.11632 17.7269 8.05798 17.7827C7.99963 17.8385 7.94129 17.8942 7.85378 17.9221L8.14549 18.3962H7.85378L7.56207 17.9221H7.27035V18.3962H7.00781V17.1692H7.06616ZM7.73709 17.699C7.79544 17.699 7.85378 17.699 7.88295 17.6711C7.91212 17.6433 7.94129 17.6154 7.94129 17.5596C7.94129 17.5038 7.91212 17.4759 7.88295 17.448C7.85378 17.4202 7.79544 17.4202 7.73709 17.4202H7.3287V17.7269H7.73709V17.699Z" fill="white"/>
<path d="M9.19613 18.3683C9.10862 18.3126 9.05028 18.2568 8.99194 18.201C8.93359 18.1174 8.93359 18.0337 8.93359 17.9501V17.1971H9.19613V17.9501C9.19613 18.0337 9.22531 18.0895 9.28365 18.1453C9.34199 18.201 9.4295 18.2289 9.51702 18.2289C9.60453 18.2289 9.69205 18.201 9.75039 18.1453C9.80873 18.0895 9.8379 18.0337 9.8379 17.9501V17.1971H10.1004V17.9501C10.1004 18.0337 10.0713 18.1453 10.0421 18.201C9.98376 18.2847 9.92541 18.3405 9.8379 18.3683C9.75039 18.4241 9.66287 18.4241 9.54619 18.4241C9.40033 18.4241 9.28365 18.3962 9.19613 18.3683Z" fill="white"/>
<path d="M11.7653 17.8943C11.7361 17.8385 11.6777 17.8106 11.6194 17.7548C11.5611 17.727 11.4735 17.6991 11.3569 17.6712C11.2693 17.6433 11.2402 17.6433 11.1818 17.6154C11.1527 17.5875 11.1235 17.5875 11.0943 17.5596C11.0651 17.5318 11.0651 17.5318 11.0651 17.5039C11.0651 17.476 11.0943 17.4481 11.1235 17.4202C11.1527 17.3923 11.211 17.3923 11.2693 17.3923H11.2985C11.3569 17.3923 11.4152 17.4202 11.4444 17.4202C11.4735 17.4481 11.5027 17.476 11.5319 17.476L11.7069 17.3087C11.6777 17.2808 11.6486 17.2529 11.5902 17.225C11.5611 17.1971 11.5319 17.1971 11.5027 17.1971C11.4444 17.1692 11.3569 17.1692 11.2985 17.1414C11.211 17.1414 11.1235 17.1414 11.036 17.1692C10.9485 17.1971 10.8901 17.2529 10.861 17.3087C10.8026 17.3644 10.8026 17.4202 10.8026 17.5039C10.8026 17.6154 10.8318 17.6991 10.8901 17.7548C10.9776 17.8106 11.0651 17.8664 11.2402 17.8943C11.3277 17.9222 11.386 17.9222 11.4152 17.95C11.4444 17.95 11.4735 17.9779 11.5027 18.0058C11.5319 18.0337 11.5319 18.0337 11.5319 18.0895C11.5319 18.1174 11.5027 18.1452 11.4735 18.1731C11.4152 18.201 11.3569 18.201 11.2693 18.201C11.1818 18.201 11.1527 18.1731 11.0943 18.1731C11.036 18.1452 10.9776 18.1174 10.9485 18.0895L10.7734 18.2568C10.8318 18.3404 11.0651 18.452 11.2402 18.452C11.3569 18.452 11.4444 18.452 11.5319 18.4241C11.6194 18.3962 11.6777 18.3683 11.7361 18.3126C11.7944 18.2568 11.7944 18.201 11.8236 18.1174C11.8236 18.0058 11.7944 17.95 11.7653 17.8943Z" fill="white"/>
<path d="M12.5508 17.1692H12.8133V17.6711H13.4551V17.1692H13.7176V18.4241H13.4551V17.9221H12.8133V18.4241H12.5508V17.1692Z" fill="white"/>
<path d="M14.5078 17.1692H15.4705V17.4202H14.7412V17.6711H15.4705V17.9221H14.7412V18.1731H15.4705V18.4241H14.5078V17.1692Z" fill="white"/>
<path d="M16.1406 17.1692H16.4032L16.7532 18.0615L17.1033 17.1692H17.3658L16.8699 18.4241H16.6074L16.1406 17.1692Z" fill="white"/>
</svg>
