<svg width="169" height="113" viewBox="0 0 169 113" fill="none" xmlns="http://www.w3.org/2000/svg">
<path d="M35 90C48.2548 90 59 79.4787 59 66.5C59 53.5213 48.2548 43 35 43C21.7452 43 11 53.5213 11 66.5C11 79.4787 21.7452 90 35 90Z" stroke="black" stroke-miterlimit="10"/>
<path d="M134 90C147.255 90 158 79.4787 158 66.5C158 53.5213 147.255 43 134 43C120.745 43 110 53.5213 110 66.5C110 79.4787 120.745 90 134 90Z" stroke="black" stroke-miterlimit="10"/>
<path d="M134.5 112C146.374 112 156 102.598 156 91C156 79.402 146.374 70 134.5 70C122.626 70 113 79.402 113 91C113 102.598 122.626 112 134.5 112Z" stroke="black" stroke-miterlimit="10"/>
<path d="M53.7403 1.05868L47.074 7.68967C51.8619 10.3502 55.6271 14.5157 57.7795 19.5333C59.9319 24.551 60.3499 30.1371 58.968 35.4164C57.586 40.6957 54.4823 45.3697 50.1431 48.706C45.8039 52.0423 40.4745 53.8522 34.9902 53.8522C29.5058 53.8522 24.1765 52.0423 19.8373 48.706C15.4981 45.3697 12.3943 40.6957 11.0123 35.4164C9.6304 30.1371 10.0484 24.551 12.2008 19.5333C14.3532 14.5157 18.1184 10.3502 22.9063 7.68967L16.2007 1C10.1152 5.01685 5.49181 10.8761 3.01494 17.7104C0.538073 24.5446 0.339411 31.9906 2.44836 38.9459C4.55732 45.9012 8.86178 51.9962 14.7245 56.3284C20.5872 60.6607 27.6966 63 35 63C42.3034 63 49.4128 60.6607 55.2755 56.3284C61.1382 51.9962 65.4427 45.9012 67.5516 38.9459C69.6606 31.9906 69.4619 24.5446 66.9851 17.7104C64.5082 10.8761 59.8848 5.01685 53.7993 1L53.7403 1.05868Z" stroke="black" stroke-miterlimit="10"/>
<path d="M152.799 1.05868L146.074 7.68967C150.862 10.3502 154.627 14.5157 156.78 19.5333C158.932 24.551 159.35 30.1371 157.968 35.4164C156.586 40.6957 153.482 45.3697 149.143 48.706C144.804 52.0423 139.475 53.8522 133.99 53.8522C128.506 53.8522 123.176 52.0423 118.837 48.706C114.498 45.3697 111.394 40.6957 110.012 35.4164C108.63 30.1371 109.048 24.551 111.201 19.5333C113.353 14.5157 117.118 10.3502 121.906 7.68967L115.201 1C109.115 5.01685 104.492 10.8761 102.015 17.7104C99.5381 24.5446 99.3394 31.9906 101.448 38.9459C103.557 45.9012 107.862 51.9962 113.724 56.3284C119.587 60.6607 126.697 63 134 63C141.303 63 148.413 60.6607 154.275 56.3284C160.138 51.9962 164.443 45.9012 166.552 38.9459C168.661 31.9906 168.462 24.5446 165.985 17.7104C163.508 10.8761 158.885 5.01685 152.799 1V1.05868Z" stroke="black" stroke-miterlimit="10"/>
</svg>
