<svg width="65" height="97" viewBox="0 0 65 97" fill="none" xmlns="http://www.w3.org/2000/svg">
<g clip-path="url(#clip0_2273_3096)">
<path d="M35.9374 95.8729C40.0168 95.8729 43.3239 92.6063 43.3239 88.5768C43.3239 84.5472 40.0168 81.2806 35.9374 81.2806C31.8579 81.2806 28.5508 84.5472 28.5508 88.5768C28.5508 92.6063 31.8579 95.8729 35.9374 95.8729Z" stroke="black" stroke-width="0.8" stroke-miterlimit="10"/>
<path d="M35.9414 74.1692V81.2806" stroke="black" stroke-width="0.8" stroke-miterlimit="10"/>
<path d="M40.6124 75.0003C47.2739 75.0003 52.674 69.6662 52.674 63.0863C52.674 56.5064 47.2739 51.1724 40.6124 51.1724C33.951 51.1724 28.5508 56.5064 28.5508 63.0863C28.5508 69.6662 33.951 75.0003 40.6124 75.0003Z" stroke="black" stroke-width="0.8" stroke-miterlimit="10"/>
<path d="M32.2962 60.0386C32.3897 60.4081 32.2027 60.8698 31.9222 61.1469C29.3042 63.0864 18.8321 70.5673 13.222 66.3189C7.05097 61.701 14.9051 55.2361 15.5596 54.5896C15.4661 54.1278 13.5025 43.7839 21.3566 44.1533C28.4627 44.4304 31.6417 56.8985 32.2962 60.0386Z" stroke="black" stroke-width="0.8" stroke-miterlimit="10"/>
<path d="M2.0923 52.2806L17.333 44.338C17.333 44.338 12.3774 35.01 4.71033 38.9813C-2.95675 42.9526 2.0923 52.2806 2.0923 52.2806Z" stroke="black" stroke-width="0.8" stroke-miterlimit="10"/>
<path d="M15.4637 54.1278C13.3132 52.4654 11.3497 50.5259 9.76016 48.3093L9.10565 48.6788C10.8822 51.08 12.9392 53.1119 15.2767 54.8666C15.4637 54.7743 15.5572 54.6819 15.5572 54.5896C15.5572 54.5896 15.5572 54.4049 15.4637 54.1278ZM33.6029 1.11523C16.8662 1.11523 3.30859 14.5069 3.30859 31.0387C3.30859 33.8094 3.6826 36.5801 4.4306 39.1661C4.52411 39.0737 4.71111 38.9813 4.80461 38.9813C4.89811 38.889 4.99161 38.889 5.08511 38.7966C4.43061 36.303 4.0566 33.717 4.0566 31.0387C4.0566 14.9687 17.3337 1.85409 33.6029 1.85409C49.8721 1.85409 63.1492 14.9687 63.1492 31.0387C63.1492 41.1979 57.8197 50.2488 49.7786 55.5131C49.9656 55.6978 50.0591 55.8826 50.2461 56.0673C58.4742 50.7106 63.8972 41.475 63.8972 31.0387C63.8972 14.5069 50.2461 1.11523 33.6029 1.11523Z" fill="black"/>
</g>
<defs>
<clipPath id="clip0_2273_3096">
<rect width="64.3103" height="96.4655" fill="white" transform="translate(0 0.326416)"/>
</clipPath>
</defs>
</svg>
