<svg width="62" height="63" viewBox="0 0 62 63" fill="none" xmlns="http://www.w3.org/2000/svg">
<path d="M59.8834 41.8157L53.8708 41.3293C53.7073 41.7109 53.5348 42.0867 53.3533 42.4568L57.6049 46.7533C57.7976 46.4193 57.9835 46.0813 58.1625 45.7393L55.0276 42.5503L59.4747 42.8973C59.6176 42.5398 59.7539 42.1793 59.8834 41.8157ZM28.3293 56.1555C24.9048 56.1507 17.6319 53.1319 15.6279 50.8985L28.3293 38.2062V56.1555ZM28.3483 30.1482C28.3441 30.313 28.2813 30.4708 28.1713 30.5936C22.7406 36.0348 17.305 41.4704 11.8645 46.9003C11.8266 46.9382 11.7866 46.9739 11.7341 47.0236C6.51014 40.692 4.49365 31.0633 8.11358 22.2016C11.8867 12.9664 20.3798 7.70618 28.3429 6.94622C28.3472 7.04189 28.3553 7.13594 28.3553 7.23053C28.356 14.8698 28.3537 22.509 28.3483 30.1482ZM33.8201 56.1517V38.2386L46.5113 50.9212C44.3167 53.2227 37.0378 56.2371 33.8201 56.1517ZM34.0513 30.6769C33.9667 30.5993 33.9001 30.5042 33.8562 30.3982C33.8122 30.2922 33.792 30.178 33.7969 30.0634C33.8034 22.4786 33.8052 14.8934 33.8023 7.30782V1.12274C32.9109 1.04347 32.0086 1.00257 31.0956 1.00005C14.2459 0.970859 0.542422 14.6296 0.503987 31.4903C0.465552 48.3792 14.104 62.0509 31.049 62.1098C40.4683 62.1428 48.9235 57.8679 54.5431 51.1407C54.5442 51.139 36.9058 33.5248 34.0513 30.6769Z" stroke="black" stroke-width="0.583609" stroke-miterlimit="10"/>
<path d="M45.0816 5.30794C45.0423 4.97883 44.9122 4.66709 44.7059 4.40744C44.5672 4.22968 44.3998 4.07624 44.2106 3.95341C43.5758 3.65253 42.9291 3.37236 42.2705 3.11292C41.8865 2.96229 41.4985 2.81816 41.1066 2.68051L41.0784 2.67078L38.722 7.95753L38.7188 7.96456L38.7469 7.97374C39.0988 8.08761 39.4519 8.21175 39.8063 8.34616V8.34021L40.6584 6.42842L41.8314 6.95001L42.0875 9.33854V9.34502C42.4928 9.54609 42.8966 9.7605 43.299 9.98823L43.3104 9.99472V9.98715L43.0316 7.35702C43.4225 7.40688 43.8191 7.33115 44.1641 7.14081C44.5042 6.94797 44.7707 6.64803 44.9219 6.28789C45.0642 5.98205 45.1194 5.64303 45.0816 5.30794V5.30794ZM43.8658 5.81548C43.83 5.90531 43.7746 5.98608 43.7038 6.05198C43.6329 6.11787 43.5483 6.16725 43.456 6.19654C43.2698 6.25527 43.0532 6.22969 42.8064 6.11979L41.132 5.3755L41.7091 4.07827L43.3834 4.82256C43.6303 4.93282 43.7941 5.07696 43.875 5.25497C43.9155 5.34313 43.9358 5.43926 43.9342 5.53627C43.9326 5.63327 43.9092 5.72868 43.8658 5.81548V5.81548Z" stroke="black" stroke-width="0.583609" stroke-miterlimit="10"/>
<path d="M53.297 10.5595L50.8659 13.074C50.6165 13.3316 50.3278 13.4529 49.9998 13.4377C49.6717 13.4226 49.3525 13.2658 49.0421 12.9675C48.7332 12.6698 48.5652 12.3569 48.5381 12.0286C48.5111 11.7003 48.6222 11.4074 48.8716 11.1497L51.3017 8.6358C51.0238 8.39041 50.7414 8.1506 50.4545 7.91638L48.0726 10.3817C47.7796 10.6728 47.5748 11.0406 47.4819 11.4428C47.389 11.845 47.4118 12.2652 47.5475 12.6551C47.6277 12.8952 47.7434 13.122 47.8907 13.328C48.1729 13.5871 48.4506 13.8548 48.7238 14.1312C48.9362 14.2735 49.1689 14.3828 49.414 14.4555C49.8091 14.5771 50.2305 14.5849 50.6299 14.478C51.0292 14.3711 51.3902 14.1538 51.6714 13.8512L54.0533 11.3881C53.8061 11.1067 53.554 10.8305 53.297 10.5595Z" stroke="black" stroke-width="0.583609" stroke-miterlimit="10"/>
<path d="M58.1789 17.7993C58.1424 17.4823 58.0498 17.1743 57.9055 16.8896C57.8887 16.8555 57.8719 16.822 57.8541 16.7891C57.8362 16.7561 57.8205 16.7274 57.8037 16.6972C57.8022 16.6951 57.801 16.693 57.7999 16.6907C57.6516 16.4287 57.456 16.1965 57.2228 16.0059C56.9705 15.7949 56.6655 15.6565 56.3405 15.6053C56.0284 15.5598 55.71 15.6113 55.4283 15.7529C54.9931 15.9648 54.7358 16.2752 54.6564 16.6842C54.577 17.0932 54.628 17.6425 54.8096 18.3322C54.8818 18.5904 54.9404 18.8522 54.985 19.1165C55.0099 19.2902 55.0043 19.4259 54.9682 19.5235C54.9456 19.5774 54.9126 19.6264 54.8709 19.6675C54.8293 19.7086 54.7799 19.741 54.7256 19.763C54.5658 19.8408 54.3956 19.8143 54.2152 19.6835C54.0347 19.5527 53.8543 19.3039 53.6738 18.9371C53.556 18.6991 53.4781 18.4435 53.4432 18.1803C53.4195 17.9583 53.4219 17.7343 53.4503 17.5128L52.4477 17.1998C52.2561 17.6096 52.2956 18.5895 52.6187 19.2851C52.6409 19.3338 52.6648 19.3803 52.6897 19.4257C52.7514 19.5338 52.812 19.6419 52.8732 19.743V19.7462C53.0187 19.9995 53.1991 20.2311 53.4091 20.4343C53.6845 20.6865 53.9779 20.8398 54.2893 20.8943C54.61 20.9475 54.9393 20.8957 55.228 20.7467C55.5427 20.5935 55.767 20.3954 55.9009 20.1521C56.0397 19.8883 56.1044 19.5919 56.0882 19.2943C56.0795 18.9635 56.0128 18.5594 55.8879 18.082C55.8185 17.8367 55.7643 17.5874 55.7255 17.3355C55.7035 17.1615 55.7103 17.0281 55.7461 16.9355C55.7862 16.8384 55.8627 16.7608 55.9594 16.7193C56.1037 16.6473 56.2672 16.6692 56.4498 16.7853C56.6228 16.9038 56.7637 17.0631 56.8601 17.249C56.8823 17.2874 56.9035 17.3285 56.924 17.3712C57.0377 17.6032 57.0909 17.8104 57.0837 17.9928C57.0807 18.1561 57.0495 18.3178 56.9917 18.4706V18.4733L58.037 18.7976C58.1155 18.6176 58.1453 18.4857 58.1756 18.1809C58.1888 18.0541 58.1899 17.9263 58.1789 17.7993V17.7993Z" stroke="black" stroke-width="0.583609" stroke-miterlimit="10"/>
<path d="M61.3375 27.1468L59.0217 27.5965L58.4739 24.7859L60.7962 24.3351C60.7063 23.9643 60.6096 23.5962 60.5061 23.2308L54.8047 24.3362C54.9169 24.7026 55.0198 25.0695 55.1132 25.4367L57.3376 25.0043L57.8854 27.8149L55.6595 28.2473C55.7103 28.6268 55.7522 29.0051 55.7851 29.3824L61.4805 28.2771C61.4397 27.8991 61.392 27.5223 61.3375 27.1468Z" stroke="black" stroke-width="0.583609" stroke-miterlimit="10"/>
<path d="M55.8641 32.3737C55.8139 33.8382 55.6346 35.2955 55.3281 36.7286L56.4649 36.8675L56.8617 33.6433L58.0684 33.7909L57.6716 37.0156L58.8203 37.1567L59.2171 33.932L60.4237 34.0801L60.0275 37.3042L61.0853 37.4345C61.3663 35.9971 61.5434 34.5413 61.6152 33.0785L55.8641 32.3737Z" stroke="black" stroke-width="0.583609" stroke-miterlimit="10"/>
<path d="M59.8817 41.8159L53.8691 41.3295C53.7056 41.7111 53.5331 42.0869 53.3516 42.457L57.6032 46.7535C57.7959 46.4195 57.9818 46.0815 58.1608 45.7395L55.0259 42.5505L59.473 42.8975C59.6159 42.54 59.7522 42.1795 59.8817 41.8159Z" stroke="black" stroke-width="0.583609" stroke-miterlimit="10"/>
</svg>
