<svg width="198" height="26" viewBox="0 0 198 26" fill="none" xmlns="http://www.w3.org/2000/svg">
<path d="M0.0852993 1.17737H13.3067C15.0127 1.17737 16.5481 1.49201 17.9128 2.19994C19.2776 2.82922 20.3012 3.77313 21.0689 4.95302C21.8366 6.13292 22.1778 7.39147 22.1778 8.886C22.1778 10.6165 21.666 12.111 20.6424 13.3696C19.6188 14.6282 18.254 15.4934 16.4628 16.044L22.4337 25.5618H16.5481L10.9183 16.5946H5.11796V25.5618H0V1.17737H0.0852993ZM13.3067 11.7178C14.5009 11.7178 15.4392 11.4818 16.0363 10.9312C16.7187 10.3805 16.9746 9.6726 16.9746 8.80734C16.9746 7.94209 16.6334 7.23415 16.0363 6.68354C15.3539 6.13292 14.5009 5.89694 13.3067 5.89694H5.11796V11.7178H13.3067Z" fill="#020203"/>
<path d="M41.2557 24.3113C39.6662 23.4516 38.3946 22.3575 37.4409 20.8725C36.5667 19.3876 36.0898 17.7463 36.0898 15.8706V1.17737H40.8584V15.9487C40.8584 17.4337 41.4147 18.6842 42.4479 19.5439C43.481 20.4817 44.9911 20.9507 46.819 20.9507C48.6469 20.9507 50.0775 20.4817 51.1902 19.5439C52.2233 18.606 52.7797 17.4337 52.7797 15.9487V1.17737H57.5482V15.9487C57.5482 17.8245 57.0713 19.4657 56.1971 20.9507C55.1639 22.3575 53.8923 23.5298 52.3028 24.3113C50.7133 25.1711 48.8059 25.5618 46.7395 25.5618C44.6732 25.5618 42.8452 25.1711 41.2557 24.3113Z" fill="#020203"/>
<path d="M89.8546 14.9009C89.2423 13.851 88.3239 13.0434 87.0994 12.3165C85.8749 11.6704 84.2678 11.0243 82.2779 10.5397C80.9004 10.2166 79.9055 9.89356 79.2167 9.57051C78.5279 9.24745 78.0687 9.00516 77.8391 8.60134C77.6095 8.27829 77.4565 7.87447 77.4565 7.30912C77.4565 6.58225 77.9156 6.0169 78.681 5.53232C79.3697 5.1285 80.2116 4.96697 81.2065 4.96697C81.3596 4.96697 81.5892 4.96697 81.7422 4.96697C82.8137 5.04773 83.6555 5.29003 84.3443 5.69385C84.9566 6.09767 85.5688 6.58225 85.8749 7.06683L89.1658 3.75551C88.6301 3.1094 88.2474 2.70558 87.176 1.89794C86.7168 1.57489 86.2576 1.3326 85.7984 1.09031C84.6504 0.605722 83.3494 0.282668 81.9718 0.201904C80.2881 0.201904 78.7575 0.444196 77.4565 1.00954C76.0789 1.57489 75.0074 2.46329 74.2421 3.51322C73.4768 4.64391 73.0176 5.85537 72.9411 7.30912C72.8646 9.40898 73.4768 11.105 74.7779 12.2357C76.0789 13.4472 78.2218 14.4163 81.0534 15.1432C82.5075 15.547 83.579 15.8701 84.2678 16.1124C84.9565 16.3547 85.4157 16.6777 85.7219 17.0815C86.028 17.4046 86.1045 17.8892 86.1045 18.5353C86.028 19.3429 85.6453 19.9083 84.8035 20.3121C83.9616 20.7159 82.6606 20.8774 80.9769 20.7967C79.5993 20.7159 78.6044 20.3929 77.7626 20.0698C76.9207 19.7467 75.8493 19.0199 75.3136 18.6161L72.1758 21.7658C73.3238 23.4619 77.4565 25.5617 80.7473 25.5617C82.6606 25.5617 84.4208 25.481 85.8749 24.9156C87.329 24.431 88.477 23.6234 89.3188 22.4927C90.1607 21.4428 90.6199 20.0698 90.6964 18.6161C90.7729 17.2431 90.4668 15.9508 89.8546 14.9009Z" fill="#020203"/>
<path d="M105.34 1.17737H110.108V10.9627H122.03V1.17737H126.798V25.5618H122.03V15.7765H110.108V25.5618H105.34V1.17737Z" fill="#020203"/>
<path d="M142.406 1.17737H160.938V5.96017H147.241V10.9782H160.938V15.761H147.241V20.779H160.938V25.5618H142.406V1.17737Z" fill="#020203"/>
<path d="M173.617 1.17737H178.842L185.809 18.8541L192.776 1.17737H198.002L188.546 25.5618H183.155L173.617 1.17737Z" fill="#020203"/>
</svg>
