<svg width="26" height="25" viewBox="0 0 26 25" fill="none" xmlns="http://www.w3.org/2000/svg">
<path d="M24.8719 9.19065L13.084 23.948C13.031 24.0173 12.9426 24.0173 12.8896 23.948L1.11929 9.19065C1.01326 9.06926 0.977909 8.89585 1.01325 8.73978L2.21503 2.89581C2.25037 2.70505 2.40943 2.53164 2.60383 2.47962L7.60532 1.02296C7.79973 0.970939 7.99413 1.02296 8.15319 1.14435L12.9603 5.58369C12.9779 5.60103 13.031 5.60103 13.0486 5.58369L17.8557 1.14435C17.9971 1.00562 18.2092 0.970939 18.4036 1.02296L23.4051 2.47962C23.5995 2.53164 23.7585 2.70505 23.7939 2.89581L24.9957 8.73978C25.0133 8.89585 24.978 9.06926 24.8719 9.19065Z" stroke="#1E1E1C" stroke-miterlimit="10"/>
</svg>
