<svg width="64" height="62" viewBox="0 0 64 62" fill="none" xmlns="http://www.w3.org/2000/svg">
<path d="M62.5469 22.2604L31.8137 60.9212C31.6754 61.1029 31.445 61.1029 31.3068 60.9212L0.619614 22.2604C0.343152 21.9423 0.250997 21.488 0.343151 21.0792L3.47638 5.76931C3.56853 5.26959 3.98322 4.81529 4.49007 4.679L17.5298 0.86289C18.0367 0.726601 18.5435 0.86289 18.9582 1.1809L31.4911 12.8109C31.5372 12.8564 31.6754 12.8564 31.7215 12.8109L44.2544 1.1809C44.623 0.81746 45.176 0.726601 45.6828 0.86289L58.7226 4.679C59.2294 4.81529 59.6441 5.26959 59.7362 5.76931L62.8695 21.0792C62.9155 21.488 62.8234 21.9423 62.5469 22.2604Z" stroke="#1E1E1C" stroke-width="0.434529" stroke-miterlimit="10"/>
<path d="M16.5441 27.5074H18.5331C18.7898 27.5074 19.0208 27.561 19.2261 27.6814C19.4314 27.7884 19.5854 27.9489 19.7009 28.1496C19.8164 28.3503 19.8677 28.5644 19.8677 28.8186C19.8677 29.1129 19.7908 29.3671 19.6368 29.5811C19.4828 29.7952 19.2774 29.9424 19.008 30.036L19.9062 31.6548H19.0208L18.1738 30.1297H17.3012V31.6548H16.5312V27.5074H16.5441ZM18.5331 29.3002C18.7128 29.3002 18.854 29.2601 18.9438 29.1664C19.0465 29.0728 19.085 28.9523 19.085 28.8052C19.085 28.658 19.0336 28.5376 18.9438 28.444C18.8411 28.3503 18.7128 28.3102 18.5331 28.3102H17.3012V29.3002H18.5331Z" fill="#020203"/>
<path d="M23.0372 31.4675C22.7806 31.3204 22.5753 31.1331 22.4213 30.8789C22.2801 30.6247 22.2031 30.3437 22.2031 30.0226V27.5074H22.9731V30.036C22.9731 30.2902 23.0629 30.5043 23.2297 30.6514C23.3966 30.812 23.6404 30.8923 23.9355 30.8923C24.2307 30.8923 24.4617 30.812 24.6413 30.6514C24.8082 30.4909 24.898 30.2902 24.898 30.036V27.5074H25.668V30.036C25.668 30.3571 25.591 30.6381 25.4498 30.8923C25.283 31.1331 25.0776 31.3338 24.821 31.4675C24.5643 31.6147 24.2564 31.6816 23.9227 31.6816C23.5891 31.6816 23.2939 31.6147 23.0372 31.4675Z" fill="#020203"/>
<path d="M30.7886 29.8885C30.6859 29.7146 30.5319 29.5808 30.3266 29.4604C30.1213 29.3534 29.8518 29.2464 29.5181 29.1661C29.2871 29.1126 29.1203 29.0591 29.0048 29.0055C28.8893 28.952 28.8123 28.9119 28.7738 28.845C28.7353 28.7915 28.7097 28.7246 28.7097 28.6309C28.7097 28.5105 28.7867 28.4169 28.915 28.3366C29.0305 28.2697 29.1717 28.243 29.3385 28.243C29.3641 28.243 29.4026 28.243 29.4283 28.243C29.608 28.2563 29.7491 28.2965 29.8646 28.3634C29.9673 28.4303 30.0699 28.5105 30.1213 28.5908L30.6731 28.0423C30.5833 27.9352 30.5191 27.8684 30.3394 27.7346C30.2624 27.6811 30.1854 27.6409 30.1084 27.6008C29.9159 27.5205 29.6978 27.467 29.4668 27.4536C29.1845 27.4536 28.9278 27.4937 28.7097 27.5874C28.4787 27.6811 28.299 27.8282 28.1707 28.0021C28.0424 28.1894 27.9654 28.3901 27.9525 28.6309C27.9397 28.9788 28.0424 29.2597 28.2605 29.447C28.4787 29.6477 28.838 29.8083 29.3128 29.9287C29.5566 29.9956 29.7363 30.0491 29.8518 30.0892C29.9673 30.1294 30.0443 30.1829 30.0956 30.2498C30.1469 30.3033 30.1598 30.3835 30.1598 30.4906C30.1469 30.6244 30.0828 30.718 29.9416 30.7849C29.8005 30.8518 29.5823 30.8786 29.3 30.8652C29.069 30.8518 28.9022 30.7983 28.761 30.7448C28.6198 30.6913 28.4402 30.5709 28.3504 30.504L27.8242 31.0257C28.0167 31.3067 28.7097 31.6545 29.2615 31.6545C29.5823 31.6545 29.8775 31.6411 30.1213 31.5475C30.3651 31.4672 30.5576 31.3334 30.6987 31.1461C30.8399 30.9722 30.9169 30.7448 30.9297 30.504C30.9426 30.2765 30.8912 30.0625 30.7886 29.8885Z" fill="#020203"/>
<path d="M33.1719 27.5074H33.9418V29.1664H35.8667V27.5074H36.6367V31.6415H35.8667V29.9825H33.9418V31.6415H33.1719V27.5074Z" fill="#020203"/>
<path d="M39.1055 27.5074H42.057V28.3235H39.8754V29.1798H42.057V29.9959H39.8754V30.8521H42.057V31.6682H39.1055V27.5074Z" fill="#020203"/>
<path d="M44.1211 27.5074H44.9296L46.0075 30.5043L47.0854 27.5074H47.8939L46.431 31.6415H45.5969L44.1211 27.5074Z" fill="#020203"/>
</svg>
